<svg width="24" height="25" viewBox="0 0 24 25" fill="none" xmlns="http://www.w3.org/2000/svg">
<path d="M19.5 6H4.5C3.90326 6 3.33097 6.23705 2.90901 6.65901C2.48705 7.08097 2.25 7.65326 2.25 8.25V8.625H21.75V8.25C21.75 7.65326 21.5129 7.08097 21.091 6.65901C20.669 6.23705 20.0967 6 19.5 6ZM2.25 17.25C2.25 17.8467 2.48705 18.419 2.90901 18.841C3.33097 19.2629 3.90326 19.5 4.5 19.5H19.5C20.0967 19.5 20.669 19.2629 21.091 18.841C21.5129 18.419 21.75 17.8467 21.75 17.25V10.125H2.25V17.25ZM5.25 15.375H7.125C7.32391 15.375 7.51468 15.454 7.65533 15.5947C7.79598 15.7353 7.875 15.9261 7.875 16.125C7.875 16.3239 7.79598 16.5147 7.65533 16.6553C7.51468 16.796 7.32391 16.875 7.125 16.875H5.25C5.05109 16.875 4.86032 16.796 4.71967 16.6553C4.57902 16.5147 4.5 16.3239 4.5 16.125C4.5 15.9261 4.57902 15.7353 4.71967 15.5947C4.86032 15.454 5.05109 15.375 5.25 15.375Z" fill="white"/>
</svg>
