<svg width="20" height="25" viewBox="0 0 20 25" fill="none" xmlns="http://www.w3.org/2000/svg">
<path d="M7.82374 5.55078C7.65473 5.55077 7.49126 5.60956 7.36276 5.71656C7.23426 5.82356 7.14916 5.97175 7.12277 6.13446L5.95776 13.3345L4.88737 19.9504L4.88672 19.9559L4.88801 19.9504L5.95841 13.3345C6.01283 12.9982 6.30986 12.7508 6.65899 12.7508H10.0719C13.5067 12.7508 16.4221 10.3083 16.9545 6.99859C16.9951 6.74713 17.0168 6.49806 17.0217 6.25226V6.25188H17.0213C16.1484 5.80552 15.1234 5.55078 14.0003 5.55078H7.82374Z" fill="#001C64"/>
<path d="M17.0214 6.25195C17.0166 6.49775 16.9947 6.74707 16.9542 6.99853C16.4218 10.3083 13.5065 12.7507 10.0717 12.7507H6.65872C6.30959 12.7507 6.01255 12.9981 5.95814 13.3344L4.88774 19.9503L4.21599 24.1011C4.20305 24.1813 4.20808 24.2633 4.23075 24.3414C4.25341 24.4195 4.29316 24.4918 4.34727 24.5535C4.40138 24.6152 4.46856 24.6648 4.54419 24.6987C4.61982 24.7327 4.7021 24.7503 4.78537 24.7503H8.48994C8.65895 24.7503 8.82242 24.6915 8.95092 24.5845C9.07942 24.4775 9.16452 24.3293 9.19091 24.1666L10.1668 18.1344C10.2215 17.7981 10.5187 17.5503 10.8678 17.5503H13.0492C16.484 17.5503 19.3989 15.108 19.9313 11.7985C20.3093 9.44905 19.0962 7.31173 17.0214 6.25195Z" fill="#0070E0"/>
<path d="M3.61495 0.75C3.44588 0.750005 3.28236 0.808845 3.15385 0.915923C3.02534 1.023 2.94027 1.17128 2.91397 1.33406L0.00706196 19.3004C-0.00593904 19.3806 -0.00094672 19.4626 0.0216888 19.5407C0.0443243 19.6189 0.0840671 19.6913 0.138183 19.7531C0.192299 19.8148 0.259505 19.8644 0.335164 19.8984C0.410824 19.9324 0.493141 19.95 0.576452 19.95H4.88737L5.95777 13.334L7.12278 6.13406C7.14916 5.97134 7.23426 5.82315 7.36277 5.71615C7.49127 5.60915 7.65474 5.55036 7.82375 5.55037H14C15.1234 5.55037 16.1484 5.80549 17.0214 6.25122C17.0809 3.23806 14.53 0.75 11.0223 0.75H3.61495Z" fill="#003087"/>
</svg>
