<svg width="16" height="17" viewBox="0 0 16 17" fill="none" xmlns="http://www.w3.org/2000/svg">
<g clip-path="url(#clip0_1_9039)">
<path d="M15.9914 8.89994C15.9914 8.24443 15.9369 7.76608 15.8191 7.27002H8.15918V10.2287H12.6554C12.5648 10.9639 12.0753 12.0712 10.9875 12.8153L10.9722 12.9144L13.3941 14.7478L13.5619 14.7642C15.103 13.3734 15.9914 11.3271 15.9914 8.89994Z" fill="#4285F4"/>
<path d="M8.1594 16.6953C10.3622 16.6953 12.2114 15.9866 13.5622 14.7642L10.9877 12.8153C10.2987 13.2848 9.37409 13.6125 8.1594 13.6125C6.00194 13.6125 4.17082 12.2218 3.51807 10.2996L3.42239 10.3075L0.904028 12.212L0.871094 12.3015C2.21271 14.9059 4.96848 16.6953 8.1594 16.6953Z" fill="#34A853"/>
<path d="M3.51818 10.2996C3.34594 9.80354 3.24627 9.272 3.24627 8.72281C3.24627 8.17356 3.34594 7.64208 3.50911 7.14602L3.50455 7.04037L0.954628 5.10522L0.871199 5.144C0.318256 6.22474 0.000976562 7.43835 0.000976562 8.72281C0.000976562 10.0073 0.318256 11.2208 0.871199 12.3016L3.51818 10.2996Z" fill="#FABB05"/>
<path d="M8.1594 3.83293C9.69137 3.83293 10.7248 4.47959 11.314 5.01998L13.6165 2.8231C12.2024 1.53864 10.3622 0.750244 8.1594 0.750244C4.96848 0.750244 2.21271 2.53962 0.871094 5.14395L3.50901 7.14597C4.17082 5.22371 6.00194 3.83293 8.1594 3.83293Z" fill="#E82E1B"/>
</g>
<defs>
<clipPath id="clip0_1_9039">
<rect width="16" height="16" fill="white" transform="translate(0 0.750244)"/>
</clipPath>
</defs>
</svg>
