<svg width="100" height="101" viewBox="0 0 100 101" fill="none" xmlns="http://www.w3.org/2000/svg">
<path d="M16.6665 61.9167C16.6665 54.916 16.6665 51.4157 18.0289 48.7418C19.2273 46.3898 21.1396 44.4775 23.4916 43.2791C26.1655 41.9167 29.6659 41.9167 36.6665 41.9167H63.3332C70.3339 41.9167 73.8342 41.9167 76.5081 43.2791C78.8601 44.4775 80.7724 46.3898 81.9708 48.7418C83.3332 51.4157 83.3332 54.916 83.3332 61.9167V67.75C83.3332 74.7507 83.3332 78.251 81.9708 80.9249C80.7724 83.2769 78.8601 85.1892 76.5081 86.3876C73.8342 87.75 70.3339 87.75 63.3332 87.75H36.6665C29.6659 87.75 26.1655 87.75 23.4916 86.3876C21.1396 85.1892 19.2273 83.2769 18.0289 80.9249C16.6665 78.251 16.6665 74.7507 16.6665 67.75V61.9167Z" fill="white"/>
<path d="M29.1665 41.9167V33.5833C29.1665 22.0774 38.4939 12.75 49.9999 12.75C58.5429 12.75 65.8849 17.8921 69.0997 25.25M36.6665 87.75H63.3332C70.3339 87.75 73.8342 87.75 76.5081 86.3876C78.8601 85.1892 80.7724 83.2769 81.9708 80.9249C83.3332 78.251 83.3332 74.7507 83.3332 67.75V61.9167C83.3332 54.916 83.3332 51.4157 81.9708 48.7418C80.7724 46.3898 78.8601 44.4775 76.5081 43.2791C73.8342 41.9167 70.3339 41.9167 63.3332 41.9167H36.6665C29.6659 41.9167 26.1655 41.9167 23.4916 43.2791C21.1396 44.4775 19.2273 46.3898 18.0289 48.7418C16.6665 51.4157 16.6665 54.916 16.6665 61.9167V67.75C16.6665 74.7507 16.6665 78.251 18.0289 80.9249C19.2273 83.2769 21.1396 85.1892 23.4916 86.3876C26.1655 87.75 29.6659 87.75 36.6665 87.75Z" stroke="white" stroke-width="8" stroke-linecap="round" stroke-linejoin="round"/>
<path d="M50 60.6667V69.0001" stroke="#0E0E0E" stroke-width="8" stroke-linecap="round" stroke-linejoin="round"/>
</svg>
