<svg width="262" height="178" viewBox="0 0 262 178" fill="none" xmlns="http://www.w3.org/2000/svg">
<path d="M0.00585938 153.698H261.994V159.852C261.994 169.563 254.121 177.435 244.411 177.435H17.5889C7.87808 177.435 0.00585938 169.563 0.00585938 159.852V153.698Z" fill="#C5CFDC"/>
<path d="M102.655 153.698H159.344C159.344 160.61 153.741 166.213 146.83 166.213H115.169C108.258 166.213 102.655 160.61 102.655 153.698Z" fill="#939BAA"/>
<path d="M19.7868 16.5466C19.7868 7.56402 27.0686 0.282227 36.0512 0.282227H225.948C234.931 0.282227 242.213 7.56402 242.213 16.5466V149.738C242.213 152.166 240.245 154.134 237.817 154.134H24.1826C21.7549 154.134 19.7868 152.166 19.7868 149.738V16.5466Z" fill="#A2A9BA"/>
<path d="M32.7281 21.2471C32.7281 17.6055 35.6802 14.6535 39.3218 14.6535H222.678C226.319 14.6535 229.272 17.6055 229.272 21.2471V138.589C229.272 142.231 226.319 145.183 222.678 145.183H39.3218C35.6802 145.183 32.7281 142.231 32.7281 138.589V21.2471Z" fill="white"/>
<path d="M159.375 67.8126V89.1875C159.375 92.6875 157.5 95.9376 154.469 97.7189L135.906 108.438C132.875 110.188 129.125 110.188 126.062 108.438L107.5 97.7189C104.469 95.9689 102.594 92.7188 102.594 89.1875V67.8126C102.594 64.3126 104.469 61.0625 107.5 59.2812L126.062 48.5625C129.094 46.8125 132.844 46.8125 135.906 48.5625L154.469 59.2812C157.5 61.0625 159.375 64.2814 159.375 67.8126Z" fill="#FF0000" stroke="white" stroke-width="5" stroke-linecap="round" stroke-linejoin="round"/>
<path d="M131 91.625V91.9375" stroke="white" stroke-width="5" stroke-linecap="round" stroke-linejoin="round"/>
<path d="M131 65.2188V81.625" stroke="white" stroke-width="5" stroke-linecap="round" stroke-linejoin="round"/>
</svg>
