<svg width="45" height="44" viewBox="0 0 45 44" fill="none" xmlns="http://www.w3.org/2000/svg">
<path d="M7.8335 12.4667C7.8335 9.38646 7.8335 7.84631 8.43296 6.6698C8.96026 5.63491 9.80166 4.79352 10.8365 4.26621C12.0131 3.66675 13.5532 3.66675 16.6335 3.66675H26.1668L37.1668 14.6667V31.5334C37.1668 34.6137 37.1668 36.1538 36.5674 37.3304C36.0401 38.3652 35.1987 39.2066 34.1638 39.7339C32.9873 40.3334 31.4471 40.3334 28.3668 40.3334H16.6335C13.5532 40.3334 12.0131 40.3334 10.8365 39.7339C9.80166 39.2066 8.96026 38.3652 8.43296 37.3304C7.8335 36.1538 7.8335 34.6137 7.8335 31.5334V12.4667Z" fill="white" fill-opacity="0.25"/>
<path d="M26.1668 4.16089V11.7335C26.1668 12.7603 26.1668 13.2737 26.3667 13.6659C26.5424 14.0108 26.8229 14.2913 27.1678 14.4671C27.56 14.6669 28.0734 14.6669 29.1002 14.6669H36.6728M26.1668 3.66675H16.6335C13.5532 3.66675 12.0131 3.66675 10.8365 4.26621C9.80166 4.79352 8.96026 5.63491 8.43296 6.6698C7.8335 7.84631 7.8335 9.38646 7.8335 12.4667V31.5334C7.8335 34.6137 7.8335 36.1538 8.43296 37.3304C8.96026 38.3653 9.80166 39.2066 10.8365 39.7339C12.0131 40.3334 13.5532 40.3334 16.6335 40.3334H28.3668C31.4471 40.3334 32.9873 40.3334 34.1638 39.7339C35.1987 39.2066 36.0401 38.3653 36.5674 37.3304C37.1668 36.1538 37.1668 34.6137 37.1668 31.5334V14.6667L26.1668 3.66675Z" stroke="white" stroke-width="2" stroke-linecap="round" stroke-linejoin="round"/>
<path d="M17 27.5L22.5 22M22.5 22L28 27.5M22.5 22L22.5 33" stroke="white" stroke-width="2" stroke-linecap="round" stroke-linejoin="round"/>
</svg>
